<svg width="257" height="200" viewBox="0 0 257 200" fill="none" xmlns="http://www.w3.org/2000/svg">
<g clip-path="url(#clip0_558_59596)">
<path d="M1 168.779H8.11684V173.373C8.46696 172.675 8.92454 172.014 9.48613 171.396C10.0477 170.777 10.7133 170.213 11.469 169.709C12.2282 169.207 13.0636 168.81 13.9788 168.516C14.894 168.226 15.875 168.081 16.9254 168.081C19.4109 168.081 21.366 168.585 22.7873 169.595C24.2051 170.601 25.207 171.942 25.7928 173.608C26.6456 171.976 27.8831 170.649 29.4951 169.622C31.107 168.596 33.024 168.081 35.2392 168.081C38.5428 168.081 41.0526 169.021 42.7616 170.901C44.4706 172.782 45.3268 175.661 45.3268 179.54V199.603H37.6276V181.282C37.6276 178.838 37.229 177.113 36.4317 176.104C35.6343 175.098 34.3621 174.593 32.6115 174.593C31.055 174.593 29.7343 175.184 28.6458 176.366C27.5573 177.549 27.013 179.187 27.013 181.282V199.603H19.3138V181.282C19.3138 178.838 18.9152 177.113 18.1178 176.104C17.3205 175.098 16.0483 174.593 14.2977 174.593C12.7412 174.593 11.4205 175.184 10.332 176.366C9.24347 177.549 8.69922 179.187 8.69922 181.282V199.603H1V168.779Z" fill="#454545"/>
<path d="M61.3077 200.301C59.6334 200.301 58.1566 200.059 56.874 199.571C55.5914 199.087 54.5029 198.407 53.6085 197.539C52.7141 196.664 52.0347 195.638 51.5667 194.455C51.1022 193.273 50.8665 191.984 50.8665 190.587C50.8665 184.383 54.5618 181.282 61.949 181.282H71.1631V179.827C71.1631 177.811 70.7055 176.394 69.7904 175.582C68.8752 174.769 67.4297 174.358 65.4468 174.358C63.6962 174.358 62.4343 174.659 61.6544 175.26C60.8744 175.862 60.4272 176.605 60.3128 177.497H52.6136C52.6899 176.18 53.0296 174.935 53.6328 173.774C54.2359 172.609 55.0922 171.61 56.198 170.777C57.3073 169.944 58.6558 169.283 60.2504 168.8C61.845 168.312 63.6719 168.07 65.7345 168.07C67.7971 168.07 69.5165 168.284 71.1285 168.71C72.7404 169.138 74.1236 169.826 75.271 170.777C76.4184 171.727 77.3024 172.955 77.9264 174.469C78.5469 175.983 78.8589 177.804 78.8589 179.937V191.745C78.8589 193.373 78.8901 194.798 78.9455 196.021C79.001 197.245 79.1085 198.434 79.2645 199.599H72.0922C71.9362 198.749 71.8495 198.095 71.8287 197.649C71.8079 197.204 71.7975 196.533 71.7975 195.641C70.9413 196.882 69.6482 197.967 67.9184 198.897C66.1886 199.831 63.9804 200.294 61.2973 200.294L61.3077 200.301ZM63.6996 194.369C64.6321 194.369 65.5438 194.245 66.4417 193.996C67.3361 193.747 68.1334 193.36 68.8336 192.841C69.5338 192.323 70.0989 191.655 70.5253 190.85C70.9517 190.041 71.1666 189.098 71.1666 188.022V186.581H63.4084C61.9317 186.581 60.7739 186.916 59.9384 187.59C59.103 188.264 58.687 189.177 58.687 190.335C58.687 191.569 59.1134 192.547 59.9696 193.28C60.8224 194.01 62.0704 194.376 63.7031 194.376L63.6996 194.369Z" fill="#454545"/>
<path d="M97.235 200.301C93.1895 200.301 89.9933 198.991 87.6395 196.374C85.2858 193.757 84.1106 189.792 84.1106 184.479V183.314C84.1106 178.351 85.2962 174.572 87.6673 171.973C90.0384 169.377 93.2276 168.077 97.2315 168.077C99.3322 168.077 101.187 168.533 102.802 169.446C104.414 170.359 105.728 171.551 106.74 173.024V158.893H114.439V199.603H107.267V195.067C106.487 196.46 105.264 197.684 103.593 198.731C101.922 199.775 99.8002 200.301 97.235 200.301ZM99.0445 193.785C101.339 193.785 103.194 193.114 104.615 191.78C106.033 190.442 106.744 188.396 106.744 185.644V182.153C106.744 179.633 106.016 177.742 104.556 176.48C103.097 175.219 101.26 174.593 99.0445 174.593C96.9438 174.593 95.2348 175.319 93.9105 176.771C92.5863 178.226 91.9277 180.407 91.9277 183.314V184.479C91.9277 187.622 92.6071 189.955 93.9695 191.486C95.3318 193.021 97.0235 193.785 99.0445 193.785Z" fill="#454545"/>
<path d="M130.715 200.301C129.041 200.301 127.553 200.059 126.253 199.571C124.95 199.087 123.862 198.407 122.988 197.539C122.114 196.664 121.442 195.638 120.974 194.455C120.509 193.273 120.274 191.984 120.274 190.587C120.274 184.421 123.969 181.341 131.356 181.341H140.57V179.768C140.57 177.791 140.113 176.394 139.198 175.582C138.282 174.769 136.837 174.358 134.854 174.358C133.103 174.358 131.842 174.659 131.062 175.26C130.282 175.862 129.834 176.605 129.72 177.497H122.021C122.097 176.18 122.437 174.935 123.04 173.774C123.643 172.609 124.499 171.61 125.605 170.777C126.715 169.944 128.063 169.283 129.658 168.8C131.252 168.312 133.079 168.07 135.142 168.07C137.475 168.07 139.458 168.43 141.09 169.149C142.723 169.868 144.103 170.905 145.233 172.26C146.28 171.019 147.653 170.009 149.344 169.235C151.036 168.457 153.105 168.07 155.556 168.07C160.416 168.07 164.112 169.349 166.639 171.911C169.166 174.469 170.428 178.174 170.428 183.021V186.626H148.557C148.599 187.905 148.831 189.008 149.258 189.941C149.687 190.871 150.249 191.635 150.949 192.24C151.649 192.841 152.457 193.284 153.372 193.577C154.284 193.868 155.206 194.013 156.142 194.013C158.125 194.013 159.619 193.723 160.635 193.138C161.644 192.558 162.365 191.707 162.794 190.58H169.852C169.228 193.799 167.693 196.222 165.245 197.85C162.794 199.478 159.761 200.294 156.146 200.294C153.462 200.294 151.081 199.817 149.001 198.87C146.921 197.919 145.316 196.453 144.189 194.476C143.063 196.377 141.361 197.822 139.087 198.811C136.813 199.8 134.022 200.294 130.718 200.294L130.715 200.301ZM133.107 194.369C134.039 194.369 134.951 194.241 135.849 193.989C136.743 193.74 137.541 193.349 138.241 192.824C138.941 192.298 139.506 191.631 139.933 190.816C140.359 190 140.574 189.053 140.574 187.967V186.571H132.816C131.339 186.571 130.181 186.902 129.346 187.559C128.51 188.22 128.094 189.132 128.094 190.294C128.094 191.535 128.521 192.523 129.377 193.259C130.23 193.996 131.478 194.362 133.11 194.362L133.107 194.369ZM155.851 174.361C154.957 174.361 154.076 174.476 153.196 174.711C152.322 174.942 151.556 175.319 150.89 175.844C150.232 176.37 149.687 177.068 149.258 177.939C148.831 178.814 148.599 179.889 148.557 181.168H162.964C162.923 179.809 162.718 178.696 162.354 177.822C161.983 176.947 161.477 176.252 160.836 175.727C160.195 175.201 159.449 174.845 158.593 174.648C157.737 174.455 156.822 174.358 155.851 174.358V174.361Z" fill="#454545"/>
<path d="M186.475 199.952C184.686 199.952 183.15 199.789 181.868 199.457C180.581 199.129 179.521 198.559 178.685 197.743C177.85 196.927 177.24 195.831 176.851 194.455C176.46 193.08 176.266 191.365 176.266 189.308V158.889H183.965V188.375C183.965 190.352 184.26 191.69 184.842 192.388C185.424 193.087 186.551 193.436 188.225 193.436C188.655 193.436 189.019 193.425 189.331 193.405C189.643 193.384 189.955 193.356 190.264 193.315V199.772C189.955 199.851 189.39 199.9 188.575 199.917C187.761 199.934 187.057 199.948 186.475 199.948V199.952Z" fill="#454545"/>
<path d="M208.428 200.301C206.328 200.301 204.334 199.983 202.448 199.343C200.559 198.704 198.92 197.722 197.519 196.405C196.122 195.085 195.009 193.439 194.198 191.462C193.38 189.481 192.971 187.158 192.971 184.483V183.318C192.971 180.798 193.38 178.586 194.198 176.688C195.013 174.787 196.122 173.197 197.519 171.918C198.92 170.639 200.563 169.678 202.448 169.038C204.334 168.399 206.328 168.081 208.428 168.081C210.529 168.081 212.512 168.399 214.377 169.038C216.242 169.678 217.882 170.639 219.306 171.918C220.724 173.197 221.84 174.787 222.662 176.688C223.477 178.589 223.886 180.798 223.886 183.318V184.483C223.886 187.12 223.477 189.426 222.662 191.403C221.844 193.38 220.724 195.029 219.306 196.346C217.885 197.667 216.242 198.655 214.377 199.312C212.508 199.969 210.526 200.301 208.428 200.301ZM208.428 193.785C210.605 193.785 212.425 193.011 213.878 191.462C215.337 189.913 216.069 187.583 216.069 184.483V183.318C216.069 180.49 215.337 178.326 213.878 176.833C212.422 175.343 210.605 174.597 208.428 174.597C206.251 174.597 204.383 175.343 202.944 176.833C201.506 178.326 200.788 180.49 200.788 183.318V184.483C200.788 187.625 201.506 189.958 202.944 191.49C204.383 193.024 206.213 193.788 208.428 193.788V193.785Z" fill="#454545"/>
<path d="M229.422 168.779H236.539V173.314C237.277 171.921 238.469 170.697 240.126 169.653C241.78 168.606 244.005 168.081 246.806 168.081C250.578 168.081 253.389 169.09 255.234 171.105C257.078 173.12 258.003 176.031 258.003 179.83V199.603H250.304V181.572C250.304 179.246 249.826 177.5 248.876 176.339C247.923 175.174 246.297 174.597 244.005 174.597C242.761 174.597 241.711 174.79 240.854 175.177C239.998 175.568 239.288 176.079 238.722 176.719C238.161 177.358 237.752 178.095 237.499 178.928C237.246 179.764 237.117 180.646 237.117 181.576V199.606H229.418V168.782L229.422 168.779Z" fill="#454545"/>
<g filter="url(#filter0_d_558_59596)">
<path d="M174.148 10.5364L181.965 124.322C182.301 129.23 177.233 132.701 172.761 130.62L128.722 110.135L86.2463 129.88C81.7744 131.961 76.7028 128.487 77.0426 123.579L84.8458 10.5329C85.2375 4.88461 89.9451 0.501465 95.6198 0.501465H163.37C169.048 0.501465 173.759 4.88806 174.144 10.5364H174.148Z" fill="#FF782C"/>
</g>
<path d="M129.502 35.7498C134.868 35.7498 139.222 40.0949 139.222 45.4424V73.4455C139.222 74.04 138.737 74.524 138.14 74.524H120.86C120.263 74.524 119.778 74.04 119.778 73.4455V45.4424C119.778 40.0914 124.136 35.7498 129.498 35.7498H129.502Z" fill="white"/>
</g>
<defs>
<filter id="filter0_d_558_59596" x="71.6286" y="-4.89634" width="115.75" height="141.529" filterUnits="userSpaceOnUse" color-interpolation-filters="sRGB">
<feFlood flood-opacity="0" result="BackgroundImageFix"/>
<feColorMatrix in="SourceAlpha" type="matrix" values="0 0 0 0 0 0 0 0 0 0 0 0 0 0 0 0 0 0 127 0" result="hardAlpha"/>
<feOffset/>
<feGaussianBlur stdDeviation="2.6989"/>
<feComposite in2="hardAlpha" operator="out"/>
<feColorMatrix type="matrix" values="0 0 0 0 1 0 0 0 0 1 0 0 0 0 1 0 0 0 1 0"/>
<feBlend mode="normal" in2="BackgroundImageFix" result="effect1_dropShadow_558_59596"/>
<feBlend mode="normal" in="SourceGraphic" in2="effect1_dropShadow_558_59596" result="shape"/>
</filter>
<clipPath id="clip0_558_59596">
<rect width="257" height="200" fill="white"/>
</clipPath>
</defs>
</svg>
